<mxfile host="app.diagrams.net" modified="2022-07-28T03:20:36.730Z" agent="5.0 (Macintosh; Intel Mac OS X 10_15_7) AppleWebKit/537.36 (KHTML, like Gecko) Chrome/101.0.0.0 Safari/537.36" etag="j21R19rPCI55T9tcMb3N" version="20.1.3" type="github">
  <diagram id="0LYhAWFJktq6X43vQ00S" name="第 1 页">
    <mxGraphModel dx="1426" dy="793" grid="1" gridSize="10" guides="1" tooltips="1" connect="1" arrows="1" fold="1" page="1" pageScale="1" pageWidth="827" pageHeight="1169" math="0" shadow="0">
      <root>
        <mxCell id="0" />
        <mxCell id="1" parent="0" />
        <mxCell id="4jouFrDu8QyW7zcsq__s-1" value="" style="rounded=0;whiteSpace=wrap;html=1;fillColor=#cdeb8b;strokeColor=#36393d;" vertex="1" parent="1">
          <mxGeometry x="280" y="550" width="150" height="90" as="geometry" />
        </mxCell>
        <mxCell id="4jouFrDu8QyW7zcsq__s-3" value="" style="whiteSpace=wrap;html=1;aspect=fixed;fillColor=#e1d5e7;strokeColor=#9673a6;" vertex="1" parent="1">
          <mxGeometry x="550" y="500" width="210" height="210" as="geometry" />
        </mxCell>
        <mxCell id="4jouFrDu8QyW7zcsq__s-4" value="day-2022-07-25" style="rounded=0;whiteSpace=wrap;html=1;align=left;fillColor=#fff2cc;strokeColor=#d6b656;" vertex="1" parent="1">
          <mxGeometry x="560" y="520" width="160" height="30" as="geometry" />
        </mxCell>
        <mxCell id="4jouFrDu8QyW7zcsq__s-5" value="day-2022-07-26" style="rounded=0;whiteSpace=wrap;html=1;align=left;fillColor=#fff2cc;strokeColor=#d6b656;" vertex="1" parent="1">
          <mxGeometry x="560" y="560" width="160" height="30" as="geometry" />
        </mxCell>
        <mxCell id="4jouFrDu8QyW7zcsq__s-6" value="&lt;span style=&quot;&quot;&gt;day-2022-07-27&lt;/span&gt;" style="rounded=0;whiteSpace=wrap;html=1;align=left;fillColor=#fff2cc;strokeColor=#d6b656;" vertex="1" parent="1">
          <mxGeometry x="560" y="600" width="160" height="30" as="geometry" />
        </mxCell>
        <mxCell id="4jouFrDu8QyW7zcsq__s-7" value="&lt;span style=&quot;&quot;&gt;day-2022-07-28&lt;/span&gt;" style="rounded=0;whiteSpace=wrap;html=1;align=left;fillColor=#fff2cc;strokeColor=#d6b656;" vertex="1" parent="1">
          <mxGeometry x="560" y="640" width="160" height="30" as="geometry" />
        </mxCell>
        <mxCell id="4jouFrDu8QyW7zcsq__s-8" value="..." style="text;html=1;align=center;verticalAlign=middle;resizable=0;points=[];autosize=1;strokeColor=none;fillColor=none;" vertex="1" parent="1">
          <mxGeometry x="582" y="675" width="30" height="30" as="geometry" />
        </mxCell>
        <mxCell id="4jouFrDu8QyW7zcsq__s-9" value="mysql" style="text;html=1;align=center;verticalAlign=middle;resizable=0;points=[];autosize=1;strokeColor=none;fillColor=none;" vertex="1" parent="1">
          <mxGeometry x="625" y="705" width="50" height="30" as="geometry" />
        </mxCell>
        <mxCell id="4jouFrDu8QyW7zcsq__s-10" value="聚合" style="text;html=1;align=center;verticalAlign=middle;resizable=0;points=[];autosize=1;strokeColor=none;fillColor=none;" vertex="1" parent="1">
          <mxGeometry x="330" y="640" width="50" height="30" as="geometry" />
        </mxCell>
        <mxCell id="4jouFrDu8QyW7zcsq__s-12" value="e s" style="sketch=0;shadow=0;dashed=0;html=1;labelPosition=center;verticalLabelPosition=bottom;verticalAlign=top;align=center;outlineConnect=0;shape=mxgraph.veeam.3d.datastore_snapshot;" vertex="1" parent="1">
          <mxGeometry x="160" y="466" width="54" height="34" as="geometry" />
        </mxCell>
        <mxCell id="4jouFrDu8QyW7zcsq__s-13" value="广告源statics&lt;br&gt;&lt;br&gt;facebook&lt;br&gt;&lt;br&gt;admob&lt;br&gt;&lt;br&gt;..." style="rounded=0;whiteSpace=wrap;html=1;fillColor=#dae8fc;gradientColor=#7ea6e0;strokeColor=#6c8ebf;" vertex="1" parent="1">
          <mxGeometry x="160" y="575" width="60" height="160" as="geometry" />
        </mxCell>
        <mxCell id="4jouFrDu8QyW7zcsq__s-14" value="waterfallRequest, bidRequest....." style="rounded=0;whiteSpace=wrap;html=1;fillColor=#cce5ff;strokeColor=#36393d;" vertex="1" parent="1">
          <mxGeometry x="284" y="560" width="130" height="30" as="geometry" />
        </mxCell>
        <mxCell id="4jouFrDu8QyW7zcsq__s-16" value="apiRequest, apifill..." style="rounded=0;whiteSpace=wrap;html=1;fillColor=#ffcc99;strokeColor=#36393d;" vertex="1" parent="1">
          <mxGeometry x="284" y="600" width="130" height="30" as="geometry" />
        </mxCell>
        <mxCell id="4jouFrDu8QyW7zcsq__s-19" value="" style="shape=flexArrow;endArrow=classic;html=1;rounded=0;fillColor=#eeeeee;strokeColor=#36393d;" edge="1" parent="1">
          <mxGeometry width="50" height="50" relative="1" as="geometry">
            <mxPoint x="230" y="500" as="sourcePoint" />
            <mxPoint x="250" y="540" as="targetPoint" />
          </mxGeometry>
        </mxCell>
        <mxCell id="4jouFrDu8QyW7zcsq__s-20" value="" style="shape=flexArrow;endArrow=classic;html=1;rounded=0;endWidth=14;endSize=6.2;fillColor=#eeeeee;strokeColor=#36393d;" edge="1" parent="1">
          <mxGeometry width="50" height="50" relative="1" as="geometry">
            <mxPoint x="230" y="640" as="sourcePoint" />
            <mxPoint x="270" y="610" as="targetPoint" />
          </mxGeometry>
        </mxCell>
        <mxCell id="4jouFrDu8QyW7zcsq__s-21" value="" style="shape=flexArrow;endArrow=classic;html=1;rounded=0;fillColor=#eeeeee;strokeColor=#36393d;" edge="1" parent="1">
          <mxGeometry width="50" height="50" relative="1" as="geometry">
            <mxPoint x="450" y="580" as="sourcePoint" />
            <mxPoint x="520" y="580" as="targetPoint" />
          </mxGeometry>
        </mxCell>
        <mxCell id="4jouFrDu8QyW7zcsq__s-22" value="schedule/day" style="text;html=1;align=center;verticalAlign=middle;resizable=0;points=[];autosize=1;strokeColor=none;fillColor=none;" vertex="1" parent="1">
          <mxGeometry x="310" y="520" width="90" height="30" as="geometry" />
        </mxCell>
        <mxCell id="4jouFrDu8QyW7zcsq__s-23" value="event, lr" style="text;html=1;align=center;verticalAlign=middle;resizable=0;points=[];autosize=1;strokeColor=none;fillColor=none;" vertex="1" parent="1">
          <mxGeometry x="155" y="441" width="70" height="30" as="geometry" />
        </mxCell>
        <mxCell id="4jouFrDu8QyW7zcsq__s-24" value="dashboard" style="rounded=0;whiteSpace=wrap;html=1;fillColor=#cce5ff;strokeColor=#36393d;" vertex="1" parent="1">
          <mxGeometry x="310" y="735" width="130" height="60" as="geometry" />
        </mxCell>
        <mxCell id="4jouFrDu8QyW7zcsq__s-25" value="" style="shape=flexArrow;endArrow=classic;html=1;rounded=0;fillColor=#eeeeee;strokeColor=#36393d;" edge="1" parent="1">
          <mxGeometry width="50" height="50" relative="1" as="geometry">
            <mxPoint x="450" y="755" as="sourcePoint" />
            <mxPoint x="530" y="720" as="targetPoint" />
          </mxGeometry>
        </mxCell>
      </root>
    </mxGraphModel>
  </diagram>
</mxfile>
